<?xml version="1.0" encoding="UTF-8" standalone="no"?>
<!-- Created with Inkscape (http://www.inkscape.org/) -->

<svg
   xmlns:dc="http://purl.org/dc/elements/1.1/"
   xmlns:cc="http://creativecommons.org/ns#"
   xmlns:rdf="http://www.w3.org/1999/02/22-rdf-syntax-ns#"
   xmlns:svg="http://www.w3.org/2000/svg"
   xmlns="http://www.w3.org/2000/svg"
   xmlns:sodipodi="http://sodipodi.sourceforge.net/DTD/sodipodi-0.dtd"
   xmlns:inkscape="http://www.inkscape.org/namespaces/inkscape"
   id="svg2"
   version="1.1"
   inkscape:version="0.48.1 "
   width="1600"
   height="1200"
   sodipodi:docname="alien_6576576_black_white_line_art_coloring_book_colouring.svg">
  <metadata
     id="metadata8">
    <rdf:RDF>
      <cc:Work
         rdf:about="">
        <dc:format>image/svg+xml</dc:format>
        <dc:type
           rdf:resource="http://purl.org/dc/dcmitype/StillImage" />
        <dc:title />
      </cc:Work>
    </rdf:RDF>
  </metadata>
  <defs
     id="defs6" />
  <sodipodi:namedview
     pagecolor="#ffffff"
     bordercolor="#666666"
     borderopacity="1"
     objecttolerance="10"
     gridtolerance="10"
     guidetolerance="10"
     inkscape:pageopacity="0"
     inkscape:pageshadow="2"
     inkscape:window-width="716"
     inkscape:window-height="649"
     id="namedview4"
     showgrid="false"
     inkscape:zoom="0.3267924"
     inkscape:cx="857.75238"
     inkscape:cy="471.77175"
     inkscape:window-x="665"
     inkscape:window-y="46"
     inkscape:window-maximized="1"
     inkscape:current-layer="svg2" />
  <path
     style="fill:#ffffff;fill-opacity:1"
     d="m 860.78125,72.6875 c -18.94005,0.268098 -36.19733,13.52255 -55.5,9.59375 -21.73569,-2.459992 -44.47272,0.746746 -63.15625,12.65625 -19.47219,9.71915 -37.75718,22.42295 -51.65625,39.28125 -10.44428,10.73828 -17.25752,24.45618 -20.71368,39.02361 -4.51068,14.05437 -5.5832,28.83169 -4.78632,43.53889 -1.03582,12.645 -9.83418,22.69477 -14.08951,34.35782 -10.35171,22.68938 -22.02908,44.72647 -36.19174,65.23593 -10.49828,17.81896 -19.50851,38.69589 -13.53125,59.53125 8.78691,43.86344 22.51945,86.9539 26.59375,131.6875 2.65217,16.90084 7.26503,34.70553 20.4454,46.63387 9.37611,14.32627 8.04252,32.38707 10.3046,48.70988 2.6858,36.5682 7.90742,73.49175 4.8125,110.09375 -4.72936,34.1859 -26.91792,62.046 -48.0239,87.98413 -8.63168,11.59143 -20.62337,21.85545 -24.4761,36.17212 -4.02229,15.29016 6.92962,28.80447 14.55982,40.93667 11.02943,16.45207 24.062,34.37886 21.97662,55.31278 -0.95592,3.35927 2.39978,13.96484 -3.13019,8.50055 -6.97139,-4.30268 -14.26997,-14.04875 -23.5,-10.5625 -8.57167,4.37722 -6.32397,15.56643 -5.84375,23.3125 -0.36661,6.2802 -8.93601,9.37572 -6.5,16.1875 2.55615,9.96159 11.79142,17.56543 21.375,20.53125 6.60366,1.12181 16.56045,1.93863 17.375,10.43755 0.51796,11.05 2.06203,21.9519 5.07068,32.6301 1.03796,4.4199 4.20696,12.0463 -2.38318,13.2449 -8.9816,-0.21 -16.60913,-6.5545 -24.84375,-9.5938 -13.49097,-6.824 -28.29941,-10.2261 -43.30075,-11.5278 -13.62715,-1.5714 -27.80891,-5.4615 -41.3555,-2.5034 -18.77016,5.5247 -35.93534,21.6255 -36.25,42.0937 -1.25468,9.2278 2.81368,19.0968 11.70329,22.9173 20.62524,12.4319 45.74467,8.6913 68.76429,10.6198 29.55261,0.8016 59.27401,2.1878 88.75117,-0.2558 5.41383,-0.656 13.54176,-2.8415 12.5,-9.9688 0.20752,-16.7959 -5.58651,-32.9878 -6.22505,-49.7955 -1.92694,-19.4834 -3.6297,-39.83239 1.60005,-58.86075 2.08153,-5.51089 10.00403,-7.7739 13.8125,-2.78125 7.89602,3.14936 16.58137,1.30507 24.875,1.9375 6.5078,18.83444 14.61326,38.2971 11.82334,58.7487 -0.57451,18.0206 -3.26235,36.103 -4.04209,53.9701 4.12651,9.2947 14.32649,14.7527 23.59375,18.2187 20.45115,6.9919 42.01374,9.5516 62.95382,14.4221 36.585,5.9078 74.73748,3.5907 110.45243,-5.6096 10.72687,-2.6123 20.2011,-11.0672 21.5,-22.5312 2.99449,-15.6494 -3.78115,-34.3617 -18.71875,-41.5626 -21.47572,-8.2719 -45.46521,-4.2361 -67.79202,-1.8707 -34.67201,4.5833 -68.91183,12.8616 -101.89548,23.777 -3.2824,1.5822 -6.43494,0.2563 -6.96875,-3.4375 -0.75451,-6.9917 2.21487,-13.8097 2.65237,-20.797 3.89729,-21.3009 8.66659,-42.4327 13.03513,-63.6405 15.20598,-1.25808 33.14873,-6.19253 39.78125,-21.53125 1.92777,-5.35496 -2.58049,-10.92825 -8.0625,-11.125 -5.17183,-1.30395 -11.02659,-6.06394 -8.53125,-11.96875 -1.7948,-7.91979 -13.28186,-2.5135 -16.71875,-9.40625 -4.44346,-7.09654 -3.74325,-16.30604 -3.15625,-24.375 3.61872,-15.88304 18.36657,-25.83992 25.71875,-39.9375 4.39947,-6.57924 6.3451,-15.51796 1.99695,-22.68609 -4.2026,-11.29681 -9.91002,-21.94279 -17.12023,-31.55024 -7.3928,-15.46374 -19.34431,-28.1675 -30.34547,-41.07617 -8.7604,-10.63036 -13.72198,-23.53695 -20.932,-35.10498 -8.68028,-17.18233 -16.03561,-35.75441 -15.45616,-55.39493 0.12478,-32.27146 5.91922,-63.97687 11.17583,-95.73111 2.94244,-15.28271 6.65037,-30.438 12.18108,-44.98773 38.46181,-20.55475 80.4617,-36.1611 113.50324,-65.22316 15.36871,-14.09599 25.92716,-32.92616 39.74676,-48.52684 7.91952,-8.10685 19.34994,-11.66428 30.40625,-12.5625 19.48831,-4.74902 32.33008,-21.94043 46.31743,-35.06375 16.57872,-18.04794 34.21393,-35.78986 46.82178,-57.03106 6.63869,-14.99154 10.59669,-31.28016 17.94729,-46.07464 9.25,-25.08815 10.8935,-52.19403 10.9377,-78.70313 -0.3985,-14.25021 -6.2505,-27.71291 -16.0795,-38.00749 -6.3497,-7.70497 -13.74358,-16.67303 -24.41345,-17.49493 -11.1635,-4.52978 -12.192,-18.54939 -19.875,-26.65625 C 946.95739,100.37717 923.3424,90.42829 902.09375,79.125 889.13166,73.459029 874.86198,72.305257 860.78125,72.6875 z"
     id="path3042"
     inkscape:connector-curvature="0" />
  <path
     style="fill:#ffffff;stroke:none;stroke-width:1px;stroke-linecap:butt;stroke-linejoin:miter;stroke-opacity:1"
     d="m 835.39274,167.99926 8.41513,-21.42033 3.82506,-27.54042 -10.71016,-20.655313 -19.89031,-14.535222 -29.83545,-6.885105 -30.60047,11.475175 -43.60566,22.950355 -26.0104,23.71536 -16.06525,32.8955 -5.35508,36.72056 5.35508,19.12529 8.41513,6.88511 19.12529,7.65011 31.36548,-3.82506 37.48557,-6.12009 29.07045,-13.77021 20.65531,-15.30023 -10.71016,22.95035 -12.24019,23.71536 -7.65011,22.18534 -3.06005,21.42032 -6.88511,56.61087 5.35509,23.71536 15.30023,17.59527 20.65531,17.59527 22.95035,8.41512 33.66052,3.82506 21.42032,0 15.30024,-7.65011 28.30543,-22.18534 34.42552,-35.95555 22.18534,-33.66051 18.36031,-51.25579 7.6501,-43.60566 -3.8251,-45.9007 -26.77538,-29.83546 -48.19573,-6.12009 -38.25059,0 -33.66051,12.24019 -34.42552,18.36028 z"
     id="path3818"
     inkscape:connector-curvature="0" />
  <path
     style="fill:#000000"
     d="m 797.1824,1126.8456 c -65.00595,-12.4489 -74.60741,-15.3384 -85.74574,-25.8048 -8.13642,-7.6456 -8.98197,-9.7044 -7.62938,-18.5765 0.83663,-5.4879 2.33334,-22.5919 3.32602,-38.009 1.60894,-24.9887 1.15421,-29.9572 -4.18975,-45.7779 l -5.99457,-17.74682 -11.05314,0 c -6.07925,0 -12.48622,-1.43305 -14.23772,-3.18455 -10.75711,-10.75711 -13.31385,33.84717 -4.78401,83.46087 5.54472,32.2508 4.86684,34.6061 -11.24064,39.0535 -6.00942,1.6593 -33.9994,2.0188 -74.68232,0.9591 -55.63411,-1.4491 -66.80232,-2.4306 -77.01257,-6.768 -18.23313,-7.7455 -23.88411,-14.2668 -23.88411,-27.5626 0,-21.6303 10.38999,-36.8895 31.84548,-46.7699 11.09611,-5.1099 13.63393,-5.2844 35.82617,-2.4633 39.01456,4.9595 42.46937,5.8349 63.48357,16.085 14.44092,7.0439 19.78154,8.6569 18.89297,5.7061 -3.3597,-11.1569 -6.62062,-28.8727 -6.67863,-36.2833 -0.0597,-7.63737 -0.91869,-8.42215 -10.97802,-10.03069 -20.03248,-3.20334 -36.10378,-26.79885 -24.69965,-36.26346 2.5702,-2.13306 3.70868,-6.0201 2.94038,-10.03923 -3.56967,-18.67351 10.74411,-29.72115 24.92447,-19.23717 l 7.74793,5.72829 0,-10.07045 c 0,-11.37749 -5.44672,-22.7248 -24.17852,-50.37186 -19.12489,-28.22722 -17.9923,-41.1908 6.01818,-68.8835 18.26668,-21.06804 38.35842,-49.31063 44.08397,-61.96802 12.14361,-26.84579 13.30154,-41.0087 8.45667,-103.43577 -5.77098,-74.36005 -6.77008,-79.71067 -16.68204,-89.33812 -9.66656,-9.38911 -16.00984,-28.6548 -19.07927,-57.94723 -1.93952,-18.50918 -6.10597,-38.55809 -18.89172,-90.90652 -7.12858,-29.18638 -8.82483,-40.59863 -7.42339,-49.94422 2.18237,-14.55296 11.56747,-34.8211 24.48413,-52.87595 5.22102,-7.29792 15.56355,-26.40521 22.98342,-42.46064 7.41986,-16.05543 14.63889,-30.983 16.04229,-33.17238 1.40338,-2.18937 2.18033,-10.65021 1.72653,-18.80186 -0.57391,-10.30961 1.25585,-21.619 6.0111,-37.15306 5.99109,-19.57126 8.88863,-24.5666 23.4396,-40.4093 16.91173,-18.41309 23.76618,-23.34635 56.15723,-40.417333 18.82962,-9.923742 34.19223,-12.188487 63.94403,-9.426661 6.65523,0.617802 16.55506,-1.236533 26.5379,-4.970841 12.94147,-4.841017 19.73133,-5.73983 36.2641,-4.800414 17.50498,0.99464 23.39414,2.732369 42.23454,12.462251 33.88672,17.500367 48.57702,29.517788 56.91456,46.559158 5.9101,12.07979 8.38616,14.69056 13.93253,14.69056 7.81409,0 25.61622,17.91861 34.68882,34.91571 6.5525,12.2759 7.4838,33.62183 2.9547,67.72664 -2.7917,21.02277 -4.7713,28.16122 -13.1156,47.2968 -2.5459,5.83834 -6.1411,15.39199 -7.9894,21.23032 -4.65469,14.70261 -6.68883,18.9199 -20.56623,35.78575 -13.8774,16.86585 -38.23553,44.96857 -60.79722,63.08407 -7.43836,5.83295 -15.19462,9.20038 -23.88411,10.36945 -17.51393,2.3563 -23.08054,6.5707 -39.51085,29.91323 -22.38363,31.80037 -40.63491,45.98777 -92.54318,71.93725 l -45.34943,22.67064 -4.40447,13.15552 c -7.39813,22.09721 -18.15274,92.76773 -18.15274,119.28495 0,21.65018 1.01138,27.07177 8.24453,44.1953 4.53447,10.73482 9.71173,21.30916 11.50497,23.49854 1.79327,2.18938 4.71462,7.5633 6.49189,11.94206 1.7773,4.37875 9.72614,15.09337 17.6641,23.81025 7.938,8.71688 16.36617,20.06183 18.72931,25.21101 2.36315,5.14917 5.69339,10.55632 7.40055,12.01591 1.70716,1.45958 6.43374,10.15051 10.50349,19.31317 6.54279,14.73042 7.0465,17.72907 4.35052,25.89799 -1.67696,5.08124 -8.92393,16.26957 -16.1044,24.86294 -10.88391,13.0256 -13.05537,17.39952 -13.05537,26.29731 0,14.59744 2.16823,19.06846 9.24724,19.06846 7.12556,0 12.66532,5.74941 10.63578,11.03828 -0.96675,2.51935 1.41274,4.58886 7.25214,6.3074 21.48522,6.32308 6.03528,33.62368 -21.63237,38.22511 l -9.09302,1.51227 -8.4691,40.45699 c -4.65798,22.2514 -7.61975,40.457 -6.58169,40.457 1.03806,0 8.94102,-2.4613 17.56212,-5.4696 8.6211,-3.0084 30.60232,-8.5582 48.84712,-12.3329 62.68144,-12.9685 102.14701,-12.7047 115.96387,0.7753 18.58889,18.1356 18.22596,50.7273 -0.68917,61.8875 -19.45796,11.4805 -84.84284,17.4161 -119.25538,10.8259 z m 84.87513,-9.2815 c 26.92963,-5.7043 35.17676,-10.2899 38.20028,-21.2401 2.32459,-8.419 1.5806,-13.8429 -3.81575,-27.8183 -0.84539,-2.1894 -4.73766,-6.3691 -8.64948,-9.2883 -15.2996,-11.4173 -89.88419,-3.9504 -151.08688,15.1256 -21.22329,6.6151 -27.91105,7.777 -30.40535,5.2827 -2.49427,-2.4942 -0.93201,-14.4297 7.10269,-54.2636 9.65183,-47.8513 10.28855,-53.90996 10.11439,-96.24282 -0.18391,-44.68874 -5.25899,-93.13058 -12.88084,-122.94766 -1.99706,-7.81257 -12.32245,-33.48799 -22.94531,-57.05649 L 688.377,706.26329 688.65769,675.7447 c 0.26458,-28.7751 9.16558,-90.09333 17.08224,-117.67906 1.61008,-5.61032 2.5418,-10.56038 2.07051,-11.00014 -0.73592,-0.6867 -44.8874,9.24625 -46.58362,10.48013 -0.33677,0.24495 1.13144,22.46168 3.2627,49.3705 2.13123,26.90883 3.8995,62.2851 3.92952,78.61392 0.0525,28.54449 -0.44921,31.20382 -13.01568,68.99855 -7.18858,21.62037 -15.6279,52.69806 -18.75399,69.06152 -5.27804,27.62789 -5.58405,35.58454 -4.28674,111.45918 1.24643,72.8986 1.99889,83.7102 6.97952,100.284 8.2803,27.5539 8.66149,29.7354 5.53381,31.6684 -1.57693,0.9746 -6.38398,-2.2335 -10.68235,-7.1291 -10.9062,-12.4215 -29.53164,-21.7488 -55.9489,-28.0184 -45.84213,-10.8796 -60.63388,-9.4907 -77.39142,7.2668 -17.87692,17.8769 -16.74789,34.15 3.142,45.2869 10.73989,6.0136 15.08234,6.7022 45.05772,7.1455 18.24481,0.2698 46.90575,1.1435 63.69097,1.9415 34.8673,1.6577 49.56073,-1.5157 48.43677,-10.4612 -0.36211,-2.8819 -3.21767,-22.2694 -6.34567,-43.0834 -5.40412,-35.9592 -5.47341,-38.7104 -1.3917,-55.25065 3.96275,-16.05814 3.96121,-17.91738 -0.0186,-23.99326 -3.38419,-5.16492 -3.61923,-7.27269 -1.08914,-9.76723 2.51548,-2.4801 4.38202,-1.60495 8.47167,3.97209 9.19873,12.54426 21.15644,18.05796 39.16278,18.05796 15.29732,0 21.48922,3.47248 12.40663,6.95781 -4.17189,1.6009 -2.98164,15.33808 1.86407,21.51398 1.4995,1.9111 2.16876,21.6478 1.61693,47.6831 l -0.94156,44.4223 10.44218,5.8581 c 5.7432,3.2219 20.67077,7.8567 33.17238,10.2994 12.50161,2.4428 30.49253,5.9534 39.97983,7.8013 24.05828,4.686 61.57923,4.7125 83.54824,0.059 z M 623.35914,978.50366 c 0,-5.43353 -22.52659,-19.95563 -26.82971,-17.29616 -7.98006,4.93194 7.10555,22.15021 19.53179,22.29301 5.44929,0.0626 7.29792,-1.20313 7.29792,-4.99685 z m 152.76763,-8.35238 c 11.13045,-10.45649 1.17776,-14.17387 -16.00739,-5.97883 -6.55611,3.12638 -9.37831,6.2367 -9.37831,10.33569 0,5.36097 0.81803,5.679 9.54475,3.71079 5.24963,-1.18399 12.37808,-4.81442 15.84095,-8.06765 z M 623.35914,953.41844 c 0,-7.46246 -1.72409,-10.07657 -10.4575,-15.85608 -10.06739,-6.66226 -10.5192,-6.72595 -12.11203,-1.70739 -1.97235,6.21433 3.50263,14.76723 13.79857,21.55586 4.09424,2.69954 7.74262,4.91612 8.10751,4.92573 0.3649,0.0106 0.66345,-4.00354 0.66345,-8.91812 z m 139.95445,-11.22195 c -3.37409,-3.37411 -9.91873,1.50536 -9.91873,7.39505 l 0,5.98058 5.82358,-5.82358 c 3.20299,-3.20296 5.04581,-6.60141 4.09515,-7.55205 z m -1.13654,-63.49235 c 12.28458,-15.3961 13.71898,-22.82077 7.26215,-37.58977 -5.52456,-12.63661 -32.30281,-54.45933 -33.86743,-52.89474 -0.44555,0.44557 0.88994,5.62861 2.96781,11.51785 2.07784,5.88926 4.64352,17.63605 5.70153,26.10395 1.54671,12.37961 3.41188,16.6485 9.51936,21.78762 9.11288,7.66799 9.81207,12.27195 1.62473,10.69817 -5.71722,-1.09896 -5.93281,-0.49172 -5.07187,14.28649 0.49453,8.48882 1.68874,15.43418 2.65379,15.43413 0.96505,-5e-5 5.10953,-4.20472 9.20993,-9.3437 z M 616.18878,846.73013 c -4.50679,-3.40916 -4.38008,-3.94621 2.28266,-9.67413 3.87992,-3.33552 7.67683,-9.64719 8.43762,-14.02594 0.76076,-4.37875 3.14939,-15.72371 5.30806,-25.21101 l 3.92488,-17.24963 -7.05489,9.24267 c -3.88016,5.08347 -11.37327,14.04001 -16.65132,19.90343 -11.52973,12.80844 -18.26834,25.36155 -18.26834,34.03146 0,3.51155 3.99071,11.63175 8.86825,18.04487 4.87756,6.41312 10.55004,14.64574 12.6055,18.2947 3.53076,6.26791 3.78096,5.6294 4.52827,-11.5562 0.6523,-14.99996 -0.0459,-18.82381 -3.98069,-21.80022 z m 74.84201,-306.31808 c 24.6911,-6.15343 41.38827,-12.621 74.32223,-28.78837 46.18598,-22.67282 65.46163,-37.32511 82.17103,-62.46194 4.96676,-7.47178 11.49498,-16.22207 14.50713,-19.44512 3.01216,-3.22303 5.47666,-6.35283 5.47666,-6.95513 0,-0.60231 -7.15324,-1.90439 -15.8961,-2.89351 -15.8457,-1.79274 -32.00697,-6.19756 -34.52592,-9.41018 -0.72979,-0.93076 -7.04048,-5.74392 -14.02374,-10.69594 -15.02414,-10.65399 -27.34693,-28.16675 -29.72542,-42.24481 -2.3606,-13.97226 3.06505,-69.1405 9.1051,-92.58092 2.74577,-10.65598 9.27558,-26.56482 14.51063,-35.35292 11.0731,-18.58847 11.7573,-21.23091 3.54725,-13.69953 -17.12953,15.71349 -55.8401,27.29322 -91.24028,27.29322 -20.47843,0 -27.17463,-2.03431 -37.42699,-11.37035 l -5.92947,-5.3995 -4.18439,10.01468 c -11.87632,28.42403 -25.16287,54.62039 -33.79498,66.63169 -21.74344,30.25525 -26.87074,50.50054 -19.49483,76.97546 6.15815,22.10393 14.54272,59.65543 18.92076,84.7395 2.29274,13.13627 5.31835,29.6477 6.72361,36.69208 1.40527,7.04438 2.59735,16.00092 2.64907,19.90342 0.12473,9.40488 5.65011,18.96293 13.467,23.2955 8.09834,4.48857 4.13392,4.90087 40.84165,-4.24733 z m 107.16161,-68.1246 c -0.17435,-1.21631 -0.0687,-9.00423 0.23486,-17.30648 l 0.55159,-15.09503 -10.18644,-1.84584 c -5.60252,-1.01523 -13.31528,-3.42798 -17.13947,-5.36169 -3.8242,-1.93371 -15.76625,-5.45187 -26.53791,-7.81817 -41.55039,-9.12764 -64.02409,-17.80295 -75.35986,-29.0904 -11.7603,-11.71017 -24.93706,-30.31809 -33.51026,-47.32241 -7.33192,-14.54238 -6.63766,-14.19651 -14.21253,-7.08029 -3.63745,3.41721 -7.4162,5.41047 -8.3972,4.42944 -2.90389,-2.90388 4.08198,-13.18912 14.23339,-20.95568 10.10173,-7.72855 15.28694,-7.42016 12.69228,0.7549 -3.44207,10.84506 25.88791,58.57493 42.18274,68.6457 9.83847,6.08049 32.15244,13.37213 64.57465,21.10134 11.98343,2.85675 23.17069,6.0486 24.86057,7.09303 1.68988,1.0444 7.33359,2.85993 12.54157,4.03453 7.50376,1.69237 10.15569,1.20662 12.77731,-2.34041 7.80233,-10.55659 14.54737,15.59983 9.74488,37.78955 -1.99018,9.19557 -8.19883,16.30836 -9.05003,10.36791 z m -68.70981,-87.94884 c -5.6375,-4.56497 -5.83032,-5.97697 -3.99066,-29.22072 1.45019,-18.32283 3.3537,-26.52007 7.62009,-32.81515 7.85718,-11.59335 11.30297,-11.92677 17.53975,-1.69716 11.40533,18.70718 2.70283,68.52978 -11.97005,68.52978 -1.80148,0 -5.94107,-2.15854 -9.19913,-4.79675 z m -60.04882,-68.69877 c -1.52184,-6.06349 -0.21814,-8.53371 8.57423,-16.24637 17.51584,-15.36481 40.90311,-22.09668 40.8749,-11.76558 -0.0265,9.65757 -29.01776,35.16272 -39.96905,35.16272 -6.13246,0 -8.04802,-1.44488 -9.48008,-7.15077 z m 248.21303,84.88984 c 10.37276,-6.86942 18.85958,-13.88957 18.85958,-15.60039 14.29794,-13.90032 26.82724,-30.64659 39.39345,-44.74792 5.61093,-6.08715 12.3475,-16.96857 14.97011,-24.18088 2.62258,-7.21231 8.64668,-23.26405 13.38686,-35.67052 9.4522,-24.73909 16.2225,-71.69729 12.9145,-89.57349 -1.0168,-5.49488 -6.9824,-16.64916 -13.3339,-24.93143 -13.09317,-17.07338 -13.56934,-17.21798 -65.37645,-19.85561 -22.59503,-1.15037 -31.74522,-0.49647 -43.78754,3.12916 -14.42788,4.34388 -39.35472,16.56396 -47.54108,23.30642 -11.81202,9.72863 -17.69938,16.94137 -24.86925,30.46803 -4.40001,8.30106 -12.02687,21.48912 -16.94857,29.30679 -12.68411,20.14754 -20.03818,52.04231 -21.76124,94.37886 -1.68985,41.52054 0.14065,46.37328 24.84346,65.85932 18.30157,14.43667 36.4824,19.69036 70.10666,20.25864 19.96054,0.33735 20.58436,0.14383 39.14341,-12.14698 z m -64.91877,-37.02942 c -9.95938,-4.97077 -14.14428,-11.37457 -18.76049,-28.7077 -4.81363,-18.07443 -4.51158,-28.81968 1.38199,-49.16345 7.9171,-27.32881 13.61442,-39.99002 25.67059,-57.04805 33.54197,-47.45797 70.13463,-68.89805 93.99815,-55.07467 5.1441,2.97981 12.88954,11.16482 17.21208,18.18887 6.67065,10.83972 7.78702,15.19642 7.38208,28.80912 -0.66748,22.43753 -7.42292,55.64831 -14.26914,70.14918 -9.02833,19.12276 -38.37099,57.25422 -49.9589,64.92274 -18.25245,12.07892 -47.03764,15.71928 -62.65636,7.92396 z M 732.16454,232.49606 c 20.10761,-2.58182 27.16406,-4.60645 46.44133,-13.32478 12.41658,-5.61556 37.82545,-27.38537 41.35905,-35.43564 1.3463,-3.06712 6.79009,-13.33893 12.0973,-22.82623 8.0197,-14.33621 9.69892,-20.02933 9.94206,-33.70734 0.27995,-15.74902 -0.15923,-16.92035 -10.19775,-27.20135 -5.76966,-5.909006 -12.56586,-10.743655 -15.10267,-10.743655 -19.1824,-10.656057 -35.50844,-5.28867 -53.07774,0.02534 -24.72284,7.817323 -55.21319,27.738215 -69.56316,45.449155 -19.62823,24.22545 -30.26006,64.62816 -21.73441,82.59459 7.82247,16.48463 21.86667,20.04516 59.83599,15.16991 z m -7.96137,-25.23507 c -21.73197,-6.84503 -30.14061,-29.42141 -18.23321,-48.95431 9.14156,-14.99581 37.04712,-40.17816 52.31698,-47.21147 19.08258,-8.78951 39.60139,-7.57015 49.33419,2.9317 26.40678,28.4934 -11.53942,89.34577 -59.53385,95.47135 -7.17946,0.91633 -16.70465,0.0239 -23.88411,-2.23727 z m 162.14854,-65.42457 c 14.22097,-4.88724 22.25044,-5.77374 49.3817,-5.45205 l 32.39944,0.38416 -5.29946,-10.16722 c -5.45755,-10.47053 -11.9432,-17.47112 -20.85683,-22.5128 -2.80962,-1.58916 -14.24127,-8.04772 -25.40362,-14.352356 C 888.23845,73.732525 873.33678,70.9897 847.63867,77.048038 c 0,0 -10.658,1.514109 -20.15023,4.750417 -4.91409,1.675423 7.33994,7.962885 10.55649,11.452432 3.21655,3.489547 11.27234,15.268373 12.38922,21.221753 0.7856,42.68374 -6.49201,32.23839 -6.81042,45.61611 0,2.18017 4.67961,0.54599 12.87284,-4.49537 7.08008,-4.35641 20.51489,-10.54704 29.85514,-13.75696 z"
     id="path2987"
     inkscape:connector-curvature="0"
     sodipodi:nodetypes="ssssscssssssssssscsssscsssssssssssssssssssssssssszcssscsssssssssssssssscssssssscssssssssscssscsssssssssssssssscsssssscsssccssssssssssssscssscsssscssssssssssscssssssssssssssssssssscsssssssscccsssssscsssscsssccsssssssscsssccsssssssssssssssssssssssssssssccssscsssscsscssssszccss" />
</svg>
